<svg width="31" height="28" viewBox="0 0 31 28" fill="none" xmlns="http://www.w3.org/2000/svg">
<path d="M2.23155 1.34838C2.10178 0.829333 1.5758 0.513764 1.05676 0.643539C0.537707 0.773314 0.222138 1.29929 0.351913 1.81834L1.71055 7.25235L2.97484 12.5275C3.51242 14.7706 3.93557 16.5362 4.4377 17.9078C4.95277 19.3147 5.5844 20.407 6.59781 21.2446C6.68527 21.3169 6.77437 21.3871 6.86505 21.4553C7.91576 22.2456 9.12516 22.6053 10.6134 22.7782C12.0642 22.9469 13.8798 22.9469 16.1863 22.9468H16.953C18.9486 22.9469 20.5196 22.9469 21.7852 22.8189C23.0815 22.6878 24.1481 22.4157 25.108 21.8148C25.5633 21.5297 25.9863 21.1961 26.3696 20.8198C27.1264 20.0768 27.6252 19.1746 28.0383 18.0521H21.9585C21.4235 18.0521 20.9898 17.6184 20.9898 17.0834C20.9898 16.5483 21.4235 16.1146 21.9585 16.1146H28.6363C28.7941 15.5275 28.9539 14.8834 29.125 14.1771L18.0835 14.1771C17.5485 14.1771 17.1148 13.7434 17.1148 13.2084C17.1148 12.6733 17.5485 12.2396 18.0835 12.2396L29.5889 12.2396C29.7807 11.4216 29.9311 10.7199 29.9992 10.1246C30.0919 9.31366 30.0541 8.54154 29.6493 7.83657C29.4761 7.53505 29.2597 7.26058 29.0068 7.02194C28.4156 6.464 27.6736 6.24726 26.8634 6.1484C26.0828 6.05315 25.091 6.05317 23.8877 6.0532L3.40787 6.0532L2.23155 1.34838Z" fill="#FCFCFC"/>
<path d="M12.1691 27.4167C12.92 27.4167 13.5287 26.808 13.5287 26.057C13.5287 25.3061 12.92 24.6974 12.1691 24.6974C11.4181 24.6974 10.8094 25.3061 10.8094 26.057C10.8094 26.808 11.4181 27.4167 12.1691 27.4167Z" fill="#FCFCFC"/>
<path d="M20.327 27.4167C21.0779 27.4167 21.6866 26.808 21.6866 26.057C21.6866 25.3061 21.0779 24.6974 20.327 24.6974C19.576 24.6974 18.9673 25.3061 18.9673 26.057C18.9673 26.808 19.576 27.4167 20.327 27.4167Z" fill="#FCFCFC"/>
</svg>
