<svg width="29" height="29" viewBox="0 0 29 29" fill="none" xmlns="http://www.w3.org/2000/svg">
<path fill-rule="evenodd" clip-rule="evenodd" d="M2.41665 14.5C2.41665 7.8266 7.82654 2.41671 14.5 2.41671C21.1734 2.41671 26.5833 7.8266 26.5833 14.5C26.5833 21.1735 21.1734 26.5834 14.5 26.5834C7.82654 26.5834 2.41665 21.1735 2.41665 14.5ZM16.2787 7.81471C16.6342 7.46238 17.208 7.46494 17.5603 7.82043C17.9126 8.17591 17.9101 8.74971 17.5546 9.10204L15.4243 11.2134C14.5598 12.0702 13.9667 12.66 13.5654 13.1596C13.1756 13.645 13.0419 13.9568 13.0063 14.236C12.984 14.4113 12.984 14.5887 13.0063 14.7641C13.0419 15.0433 13.1756 15.3551 13.5654 15.8404C13.9667 16.3401 14.5598 16.9298 15.4243 17.7867L17.5546 19.898C17.9101 20.2504 17.9126 20.8242 17.5603 21.1797C17.208 21.5351 16.6342 21.5377 16.2787 21.1854L14.1101 19.036C13.2933 18.2265 12.6257 17.5649 12.1523 16.9754C11.6599 16.3623 11.3036 15.7401 11.2084 14.9932C11.1666 14.6657 11.1666 14.3343 11.2084 14.0068C11.3036 13.26 11.6599 12.6377 12.1523 12.0247C12.6257 11.4352 13.2933 10.7736 14.1101 9.96409L16.2787 7.81471Z" fill="#FCFCFC"/>
</svg>
